# xmcd CD database file
#
# Track frame offsets:
#	150
#	14236
#	26384
#	36795
#	48199
#	59427
#	71793
#	85044
#	97723
#	112828
#
# Disc length: 1665 seconds
#
# Revision: 0
# Processed by: cddbd v1.5.2PL0 Copyright (c) Steve Scherf et al.
# Submitted via: CDex 1.51
#
DISCID=75067f0a
DTITLE=Dolly Parton - Coat of Many Colors
DYEAR=1971
DGENRE=Country
TTITLE0=Coat of Many Colors
TTITLE1=Traveling Man
TTITLE2=My Blue Tears
TTITLE3=If I Lost My Mind
TTITLE4=The Mystery of the Mystery
TTITLE5=She Never Met a Man (She Did..
TTITLE6=Early Morning Breeze
TTITLE7=The Way I See You
TTITLE8=Here I Am
TTITLE9=A Better Place to Live
EXTD=YEAR: 1971
EXTT0=
EXTT1=
EXTT2=
EXTT3=
EXTT4=
EXTT5=
EXTT6=
EXTT7=
EXTT8=
EXTT9=
PLAYORDER=
